<?xml version="1.0" encoding="UTF-8"?>
<svg id="Layer_2" data-name="Layer 2" xmlns="http://www.w3.org/2000/svg" viewBox="0 0 230.43 256.5">
  <defs>
    <style>
      .cls-1 {
        fill: #262626;
      }
    </style>
  </defs>
  <g id="Layer_1-2" data-name="Layer 1">
    <g>
      <path class="cls-1" d="m214.95,52.79L130.7,4.15c-4.79-2.77-10.14-4.15-15.49-4.15s-10.69,1.38-15.49,4.15L15.49,52.79C5.9,58.32,0,68.55,0,79.61v97.28c0,11.06,5.9,21.29,15.49,26.82l84.25,48.64c4.79,2.77,10.14,4.15,15.49,4.15s10.69-1.38,15.49-4.15l84.25-48.64c9.58-5.53,15.49-15.76,15.49-26.82v-97.28c0-11.06-5.9-21.29-15.49-26.82Zm3.1,124.1c0,6.62-3.56,12.78-9.29,16.09l-84.25,48.64c-2.82,1.63-6.03,2.49-9.29,2.49s-6.47-.86-9.29-2.49l-84.25-48.64c-5.73-3.31-9.29-9.48-9.29-16.09v-97.28c0-6.62,3.56-12.78,9.29-16.09L105.93,14.88c2.82-1.63,6.03-2.49,9.29-2.49s6.47.86,9.29,2.49l84.25,48.64c5.73,3.31,9.29,9.48,9.29,16.09v97.28Z"/>
      <g>
        <path class="cls-1" d="m128.72,119.81c0,25.78,0,51.55,0,77.33,0,.68.08,1.36-.16,2.02-.76,2.1-2.99,3.07-4.95,1.98-4.33-2.41-8.61-4.92-12.91-7.4-8.19-4.72-16.37-9.44-24.55-14.17-6.83-3.94-13.65-7.89-20.48-11.83-2.06-1.19-4.1-2.4-6.18-3.53-1.69-.93-2.47-2.23-2.47-4.22.03-30.62.03-61.23,0-91.85,0-1.95.69-3.32,2.39-4.27,3.22-1.8,6.38-3.69,9.61-5.47,2.21-1.22,4.75.07,5.02,2.59.37,3.47.13,6.96.22,10.44.26,9.85.08,19.7.3,29.55.21,9.51.03,19.02.26,28.53.18,7.6.08,15.2.34,22.79.05,1.56.81,2.53,2.07,3.25.81.46,1.62.92,2.45,1.35,1.75.92,3.78.14,4.5-1.71.28-.72.35-1.48.35-2.25,0-15.92,0-31.85,0-47.77,0-4.75,0-9.51,0-14.26-.01-12.95-.02-25.9-.07-38.84,0-1.81.65-3.06,2.23-3.94,2.92-1.63,5.9-3.19,8.68-5.04,3.38-2.25,6.17.34,6.16,3.56-.08,39.96-.05,79.92-.04,119.88,0,.76-.12,1.54.18,2.27.63,1.55,5.57,4.41,7.25,4.21,1.49-.17,2.58-1.26,2.71-2.75.06-.63.03-1.27.03-1.91,0-43.78,0-87.56,0-131.34,0-1.12.04-2.23.66-3.19,1.09-1.68,3.12-2.06,5.07-.95,3.02,1.73,6.01,3.49,9.03,5.22,1.63.93,2.35,2.24,2.35,4.16-.03,25.86-.02,51.72-.02,77.58Z"/>
        <path class="cls-1" d="m136.5,128.25c0-25.9,0-51.8-.01-77.7,0-1.23.1-2.38,1.1-3.24,1.24-1.07,2.72-1.19,4.25-.31,6.1,3.51,12.18,7.04,18.28,10.55,9.92,5.71,19.85,11.4,29.77,17.11,2.31,1.33,4.6,2.72,6.91,4.05,1.51.87,2.21,2.16,2.22,3.87,0,.3,0,.59,0,.89,0,29.85-.01,59.7.03,89.54,0,2.46-.74,4.18-3.02,5.34-2.72,1.38-5.3,3.02-7.95,4.54-2.5,1.43-5.11.18-5.53-2.65-.08-.54-.07-1.1-.07-1.65,0-11.12-.05-22.25.04-33.37.02-2.19-.75-3.53-2.64-4.6-7.31-4.12-14.57-8.32-21.83-12.52-2.76-1.59-5.33.13-5.32,3.1.05,14.73.03,29.47.03,44.2,0,8.49-.03,16.98.02,25.47,0,1.64-.63,2.77-1.98,3.56-2.82,1.65-5.72,3.16-8.45,4.94-2.86,1.87-5.93.06-5.91-3.42.14-25.9.07-51.8.07-77.7Zm45.97-23.3c0-4.2-.02-8.4.01-12.6.01-1.47-.6-2.48-1.86-3.21-7.49-4.3-15-8.57-22.44-12.96-2.64-1.56-5.51-.06-5.47,3.17.11,8.06.06,16.12.01,24.19-.01,1.83.76,3.04,2.29,3.92,7.38,4.24,14.75,8.5,22.12,12.76,1.21.7,2.47.97,3.75.3,1.28-.66,1.61-1.83,1.6-3.21-.04-4.12-.01-8.23-.02-12.35Z"/>
        <path class="cls-1" d="m48.78,122.55c0,13.73.02,27.95-.03,42.17,0,1.53.61,2.5,1.84,3.2,8.26,4.76,16.52,9.52,24.78,14.28,12.63,7.28,25.26,14.56,37.88,21.83,4.37,2.52,8.74,5.04,13.11,7.57,1.34.78,2.39,1.79,2.36,3.5-.03,1.68-1,2.67-2.4,3.46-2.81,1.57-5.6,3.19-8.34,4.87-1.86,1.14-3.52,1.14-5.45,0-8.43-4.97-16.93-9.82-25.4-14.71-6.9-3.98-13.8-7.96-20.7-11.94-4.62-2.67-9.24-5.34-13.87-8-6.28-3.61-12.56-7.22-18.84-10.82-1.53-.88-2.33-2.16-2.32-3.95.01-2.12,0-4.25,0-6.37,0-9.89,0-19.79,0-29.68,0-18.08,0-36.16,0-54.24,0-.55-.01-1.11.05-1.65.15-1.42.73-2.52,2.08-3.26,3.15-1.74,6.24-3.59,9.36-5.4,2.83-1.64,5.6-.06,5.67,3.19.32,15.15.11,30.31.24,45.96Z"/>
      </g>
    </g>
  </g>
</svg>