<?xml version="1.0" encoding="UTF-8"?>
<svg version="1.1" xmlns="http://www.w3.org/2000/svg" width="1418" height="1527">
<path d="M0 0 C4.92446457 2.94760449 9.90967302 5.79134435 14.88476562 8.65234375 C17.13350864 9.9478384 19.38220605 11.24341218 21.63085938 12.5390625 C22.75991699 13.1892334 23.88897461 13.8394043 25.05224609 14.50927734 C30.51896542 17.65816429 35.9830145 20.81167639 41.44726562 23.96484375 C43.61391873 25.21486725 45.78058542 26.46486722 47.94726562 27.71484375 C78.28059896 45.21484375 108.61393229 62.71484375 138.94726562 80.21484375 C140.01992676 80.83367432 141.09258789 81.45250488 142.19775391 82.09008789 C144.36283633 83.33919893 146.52787545 84.58838504 148.69287109 85.83764648 C154.13342268 88.97686684 159.57473778 92.11474938 165.01757812 95.25 C175.46932762 101.27231704 185.9102611 107.31153712 196.32226562 113.40234375 C204.99988804 118.47759498 213.7133213 123.48743142 222.44726562 128.46484375 C232.16842179 134.00486105 241.8562122 139.59859184 251.51416016 145.24829102 C262.03811187 151.40251117 272.601067 157.48854371 283.16503906 163.57373047 C286.4290089 165.45432481 289.69220751 167.33624921 292.95507812 169.21875 C294.56394897 170.146875 294.56394897 170.146875 296.20532227 171.09375 C298.35857805 172.33650566 300.51141351 173.57998988 302.66381836 174.82421875 C307.66946019 177.71641789 312.67880405 180.60129513 317.7059021 183.45602417 C319.46525982 184.45562543 321.22307631 185.45788573 322.98046875 186.4609375 C325.17018375 187.70969063 327.36267976 188.95358642 329.55859375 190.19140625 C340.53967068 196.46832241 350.27159506 203.76987088 359.44726562 212.46484375 C360.81044922 213.73134766 360.81044922 213.73134766 362.20117188 215.0234375 C387.46290953 239.23113881 398.72853209 273.10165065 399.5409168 307.42117608 C399.59002551 311.80484276 399.58564101 316.18840325 399.58097839 320.57228088 C399.58285065 322.26056577 399.585153 323.94885023 399.58784372 325.63713402 C399.59391691 330.23961049 399.59383345 334.84206869 399.59264934 339.44454825 C399.59244419 344.42293995 399.59797495 349.40132596 399.60270691 354.37971497 C399.6109895 364.11985357 399.61376067 373.85998611 399.61431929 383.60012794 C399.6147956 391.5234325 399.61685612 399.44673506 399.62001991 407.37003899 C399.62882013 429.86933364 399.6334403 452.36862354 399.63268944 474.86791993 C399.6326295 476.68477295 399.6326295 476.68477295 399.63256836 478.53833008 C399.63250704 480.35741985 399.63250704 480.35741985 399.63244448 482.21325891 C399.63203824 501.85643067 399.64160395 521.49958323 399.65570673 541.14274944 C399.67009688 561.34678713 399.67697545 581.55081549 399.67611295 601.75485843 C399.67578188 613.08394649 399.67848929 624.41301443 399.689291 635.74209785 C399.69843082 645.38944549 399.70054282 655.03676388 399.69378158 664.68411399 C399.69053381 669.59810493 399.69039601 674.5120399 399.69913483 679.42602539 C399.76972967 721.92591305 397.63126037 761.80408088 368.44726562 795.46484375 C367.77308594 796.27179687 367.09890625 797.07875 366.40429688 797.91015625 C355.50147101 810.58047119 342.78789771 819.16995194 328.44726562 827.46484375 C327.48095215 828.026875 326.51463867 828.58890625 325.51904297 829.16796875 C318.96753106 832.976145 312.39980278 836.75555292 305.82617188 840.52539062 C300.36102361 843.66232255 294.90449348 846.81416024 289.44726562 849.96484375 C287.28064234 851.21491894 285.11397562 852.46491886 282.94726562 853.71484375 C281.33851563 854.64296875 281.33851563 854.64296875 279.69726562 855.58984375 C139.94726564 936.21484374 139.94726564 936.21484374 136.69677734 938.09008789 C134.53169492 939.33919893 132.3666558 940.58838504 130.20166016 941.83764648 C124.76110857 944.97686684 119.31979347 948.11474938 113.87695312 951.25 C103.42520363 957.27231704 92.98427015 963.31153712 82.57226562 969.40234375 C73.30226785 974.82405553 63.9889481 980.1668929 54.65881348 985.48406982 C46.52156463 990.12259664 38.40760203 994.79871609 30.32226562 999.52734375 C18.70654851 1006.31950293 7.07278375 1013.07914958 -4.60107422 1019.77099609 C-6.47038152 1020.84372182 -8.33810018 1021.91922467 -10.20361328 1022.99853516 C-42.29724966 1041.54958612 -78.58922759 1049.36392003 -115.10205078 1039.796875 C-128.50738228 1036.02872828 -140.51670653 1030.38671264 -152.55273438 1023.46484375 C-153.91108398 1022.68512207 -153.91108398 1022.68512207 -155.296875 1021.88964844 C-160.2969814 1019.00785569 -165.27913831 1016.09657439 -170.25195312 1013.16796875 C-176.62225661 1009.416645 -183.0214238 1005.71675885 -189.42773438 1002.02734375 C-190.50740479 1001.40512939 -191.5870752 1000.78291504 -192.69946289 1000.1418457 C-194.88970202 998.87969333 -197.0800505 997.6177307 -199.27050781 996.35595703 C-204.6993338 993.22804227 -210.12592719 990.09625927 -215.55273438 986.96484375 C-217.7193902 985.71482496 -219.88605687 984.46482497 -222.05273438 983.21484375 C-278.38606771 950.71484375 -334.71940104 918.21484375 -391.05273438 885.71484375 C-392.12539551 885.09601318 -393.19805664 884.47718262 -394.30322266 883.83959961 C-396.46830508 882.59048857 -398.6333442 881.34130246 -400.79833984 880.09204102 C-406.23889143 876.95282066 -411.68020653 873.81493812 -417.12304688 870.6796875 C-428.55626402 864.09184702 -439.97195726 857.47607112 -451.36035156 850.81103516 C-457.9779603 846.94587353 -464.62487113 843.13554618 -471.28710938 839.34814453 C-511.24571077 816.63065232 -543.50010938 793.33204108 -557.55273438 747.46484375 C-557.86984375 746.44132813 -558.18695312 745.4178125 -558.51367188 744.36328125 C-562.56045265 729.81891074 -562.85121442 714.5392224 -562.80670166 699.54576111 C-562.80901302 697.81817401 -562.81219403 696.09058789 -562.81615615 694.36300379 C-562.82441999 689.67060728 -562.82041767 684.97829327 -562.81418371 680.28589666 C-562.80962541 675.2040354 -562.81665958 670.12218751 -562.82214355 665.04032898 C-562.8310032 655.1068907 -562.82913095 645.17348277 -562.82331827 635.24004333 C-562.81878849 627.16233617 -562.81819456 619.08463747 -562.82036591 611.0069294 C-562.82067237 609.85417551 -562.82097884 608.70142162 -562.82129459 607.51373579 C-562.82193409 605.17143483 -562.82258251 602.82913388 -562.82323977 600.48683292 C-562.82893296 578.56059903 -562.82240095 556.6343819 -562.81163904 534.70815075 C-562.80270326 515.92122948 -562.80425776 497.13433293 -562.81347656 478.34741211 C-562.82419504 456.49428973 -562.82838498 434.64118202 -562.82225204 412.78805739 C-562.82161498 410.45501904 -562.82098624 408.12198069 -562.82036591 405.78894234 C-562.82005735 404.64124613 -562.8197488 403.49354992 -562.8194309 402.31107504 C-562.81770878 394.24870501 -562.8206086 386.18634434 -562.82532501 378.12397575 C-562.83095134 368.29069095 -562.82938062 358.45743806 -562.81876352 348.62415688 C-562.81353052 343.61342357 -562.81140937 338.60274334 -562.81806183 333.5920105 C-562.82407278 328.99473486 -562.8206624 324.39756091 -562.81010672 319.80029435 C-562.80789433 318.14778278 -562.80895959 316.49526241 -562.8138583 314.84275662 C-562.85232211 300.77545644 -562.17216639 286.58799717 -558.36523438 272.96484375 C-558.15092773 272.18206055 -557.93662109 271.39927734 -557.71582031 270.59277344 C-552.33051942 251.67947483 -543.51347306 235.26382006 -530.55273438 220.46484375 C-529.90691406 219.68625 -529.26109375 218.90765625 -528.59570312 218.10546875 C-514.04437158 200.91652314 -493.33188297 190.46537339 -474.02598572 179.56365967 C-467.80432418 176.04836932 -461.61406811 172.47939869 -455.42773438 168.90234375 C-453.27930478 167.66144465 -451.13086728 166.42055923 -448.98242188 165.1796875 C-447.92249023 164.56722168 -446.86255859 163.95475586 -445.77050781 163.32373047 C-440.36602792 160.2015977 -434.95926025 157.08343171 -429.55273438 153.96484375 C-427.38605687 152.71486253 -425.2193902 151.46486254 -423.05273438 150.21484375 C-358.05273437 112.71484375 -358.05273437 112.71484375 -354.80224609 110.83959961 C-352.63716367 109.59048857 -350.47212455 108.34130246 -348.30712891 107.09204102 C-342.86657732 103.95282066 -337.42526222 100.81493812 -331.98242188 97.6796875 C-321.53067238 91.65737046 -311.0897389 85.61815038 -300.67773438 79.52734375 C-291.4077366 74.10563197 -282.09441685 68.7627946 -272.76428223 63.44561768 C-263.63990598 58.24439246 -254.55140663 52.98456497 -245.48583984 47.68139648 C-234.96188813 41.52717633 -224.398933 35.44114379 -213.83496094 29.35595703 C-209.48774075 26.85122871 -205.14197967 24.34397596 -200.79638672 21.83642578 C-198.63800968 20.5910458 -196.47948157 19.34592761 -194.32080078 18.10107422 C-188.80176681 14.91820095 -183.28486159 11.73172568 -177.77148438 8.5390625 C-171.37251431 4.83493121 -164.96507858 1.14576562 -158.55273438 -2.53515625 C-157.68616211 -3.03450684 -156.81958984 -3.53385742 -155.92675781 -4.04833984 C-103.06614471 -34.42788117 -51.64960558 -31.28904991 0 0 Z M-123.55273438 38.46484375 C-125.04377686 39.30136475 -125.04377686 39.30136475 -126.56494141 40.15478516 C-134.3300682 44.52790444 -142.05364288 48.97097197 -149.76782227 53.43310547 C-152.58490558 55.06147287 -155.40486048 56.6848478 -158.22460938 58.30859375 C-163.59709596 61.40362199 -168.96653518 64.50389162 -174.33496094 67.60595703 C-179.73944083 70.7280898 -185.1462085 73.84625579 -190.55273438 76.96484375 C-192.71941188 78.21482497 -194.88607855 79.46482496 -197.05273438 80.71484375 C-236.05273437 103.21484375 -236.05273437 103.21484375 -239.30322266 105.09008789 C-241.46830508 106.33919893 -243.6333442 107.58838504 -245.79833984 108.83764648 C-251.23889143 111.97686684 -256.68020653 115.11474938 -262.12304688 118.25 C-272.57479637 124.27231704 -283.01572985 130.31153712 -293.42773438 136.40234375 C-302.69773215 141.82405553 -312.0110519 147.1668929 -321.34118652 152.48406982 C-330.46556277 157.68529504 -339.55406212 162.94512253 -348.61962891 168.24829102 C-359.14358062 174.40251117 -369.70653575 180.48854371 -380.27050781 186.57373047 C-385.6993338 189.70164523 -391.12592719 192.83342823 -396.55273438 195.96484375 C-398.7193902 197.21486254 -400.88605687 198.46486253 -403.05273438 199.71484375 C-404.66148437 200.64296875 -404.66148437 200.64296875 -406.30273438 201.58984375 C-416.05273437 207.21484375 -416.05273437 207.21484375 -419.30541992 209.09130859 C-421.4632324 210.33625657 -423.6209479 211.58137265 -425.77856445 212.82666016 C-431.3299003 216.03037026 -436.88309979 219.23078005 -442.43945312 222.42578125 C-447.88598879 225.55821862 -453.32619642 228.70138698 -458.76220703 231.85205078 C-461.20170167 233.26196343 -463.64752381 234.65994354 -466.09570312 236.0546875 C-486.67514929 247.89609576 -500.89927425 263.50593175 -507.42773438 286.52734375 C-508.9518272 292.63336119 -509.67798793 298.45369102 -509.68416214 304.75455475 C-509.68621477 305.46977716 -509.68826741 306.18499957 -509.69038224 306.92189538 C-509.69603743 309.31891935 -509.69459682 311.71588559 -509.69317627 314.11291504 C-509.69576076 315.8487821 -509.69877416 317.58464856 -509.70217967 319.3205142 C-509.71024319 324.09139664 -509.71203888 328.86226404 -509.71277714 333.63315248 C-509.71462885 338.77856124 -509.72217684 343.92396221 -509.72891235 349.06936646 C-509.74249217 360.32165736 -509.74852001 371.57394471 -509.75292301 382.82624245 C-509.75568635 389.85408733 -509.7599239 396.88193083 -509.76442719 403.90977478 C-509.77662 423.37257043 -509.7869189 442.83536498 -509.79030228 462.29816437 C-509.79052184 463.54376372 -509.79074141 464.78936307 -509.79096763 466.07270786 C-509.79118591 467.32127088 -509.79140418 468.5698339 -509.79162908 469.85623217 C-509.79207254 472.38625113 -509.7925191 474.9162701 -509.79296875 477.44628906 C-509.79319018 478.70126314 -509.79341161 479.95623722 -509.79363975 481.24924082 C-509.79758633 501.57664373 -509.81503606 521.90401077 -509.83832827 542.23139983 C-509.86205586 563.1075079 -509.87450479 583.98359798 -509.87567019 604.85971975 C-509.87658623 616.57827807 -509.88232038 628.29678965 -509.90048981 640.01533508 C-509.91590985 649.99575908 -509.92100005 659.9761219 -509.9127517 669.95655555 C-509.9088518 675.04584741 -509.90974253 680.13501614 -509.92380905 685.22429276 C-509.93658758 689.89039069 -509.93531588 694.55627347 -509.92321834 699.22237128 C-509.92126816 700.90345485 -509.92430812 702.58455386 -509.9330627 704.26561576 C-510.04845219 727.93621006 -503.72187392 748.39027411 -487.13525391 765.9465332 C-478.99178335 773.88753328 -469.31021872 779.60386455 -459.42773438 785.08984375 C-458.2020925 785.77889941 -456.97700648 786.4689446 -455.75244141 787.15991211 C-453.24476294 788.5744827 -450.73527886 789.98576541 -448.22460938 791.39501953 C-442.5988412 794.5591446 -437.01412636 797.79437159 -431.42773438 801.02734375 C-429.27935642 802.26833226 -427.13091894 803.50921771 -424.98242188 804.75 C-423.92249023 805.36246582 -422.86255859 805.97493164 -421.77050781 806.60595703 C-416.36602792 809.7280898 -410.95926025 812.84625579 -405.55273438 815.96484375 C-403.38605687 817.21482497 -401.2193902 818.46482496 -399.05273438 819.71484375 C-397.98023438 820.33359375 -396.90773438 820.95234375 -395.80273438 821.58984375 C-366.55273438 838.46484375 -337.30273438 855.33984375 -308.05273438 872.21484375 C-306.98007324 872.83367432 -305.90741211 873.45250488 -304.80224609 874.09008789 C-302.63716367 875.33919893 -300.47212455 876.58838504 -298.30712891 877.83764648 C-292.86657732 880.97686684 -287.42526222 884.11474938 -281.98242188 887.25 C-271.53067238 893.27231704 -261.0897389 899.31153712 -250.67773438 905.40234375 C-242.00011196 910.47759498 -233.2866787 915.48743142 -224.55273438 920.46484375 C-214.83157821 926.00486105 -205.1437878 931.59859184 -195.48583984 937.24829102 C-184.96925582 943.39820267 -174.41359036 949.47976197 -163.85693359 955.56054688 C-159.41674789 958.11954263 -154.97907852 960.68288329 -150.54174805 963.24682617 C-148.35424484 964.50937609 -146.16561782 965.76998104 -143.97583008 967.02856445 C-138.88984108 969.9521287 -133.81774823 972.89357796 -128.77929688 975.8984375 C-108.14441773 988.11891625 -86.29438924 994.89416921 -62.17773438 988.96484375 C-49.27826729 985.21179432 -37.85571093 978.19966323 -26.40039062 971.34765625 C-20.67514549 967.92769294 -14.89483172 964.60435548 -9.11523438 961.27734375 C-8.00873535 960.63982178 -6.90223633 960.0022998 -5.76220703 959.34545898 C-3.49085749 958.03687532 -1.21937199 956.7285276 1.05224609 955.42041016 C6.51896542 952.27152321 11.9830145 949.11801111 17.44726562 945.96484375 C19.61391873 944.71482025 21.78058542 943.46482028 23.94726562 942.21484375 C25.55601562 941.28671875 25.55601562 941.28671875 27.19726562 940.33984375 C88.94726562 904.71484375 88.94726562 904.71484375 92.19775391 902.83959961 C94.36283633 901.59048857 96.52787545 900.34130246 98.69287109 899.09204102 C104.13342268 895.95282066 109.57473778 892.81493812 115.01757812 889.6796875 C125.46932762 883.65737046 135.9102611 877.61815038 146.32226562 871.52734375 C155.5922634 866.10563197 164.90558315 860.7627946 174.23571777 855.44561768 C183.36009402 850.24439246 192.44859337 844.98456497 201.51416016 839.68139648 C212.03811187 833.52717633 222.601067 827.44114379 233.16503906 821.35595703 C238.59386501 818.22804229 244.02048569 815.09630644 249.44726562 811.96484375 C257.06407552 807.56964875 264.68223615 803.1768187 272.30249023 798.78759766 C275.54390206 796.91869733 278.78280933 795.04551304 282.02148438 793.171875 C286.34671012 790.6708493 290.68375965 788.19211096 295.02929688 785.7265625 C310.09460096 777.29806883 310.09460096 777.29806883 323.44726562 766.46484375 C324.15238281 765.78679688 324.8575 765.10875 325.58398438 764.41015625 C342.43059534 746.88968085 346.93119606 724.21052929 346.82821655 700.81713867 C346.83168095 699.0824641 346.83645073 697.34779173 346.84239829 695.61312389 C346.8548305 690.88725133 346.84877365 686.16156235 346.83943963 681.43568945 C346.83261734 676.32313181 346.84314605 671.21060448 346.85137939 666.09805298 C346.86468514 656.09868811 346.86185309 646.09939098 346.85314147 636.10002351 C346.84635287 627.9697834 346.84545329 619.8395622 346.84871292 611.70932007 C346.84917262 610.55003154 346.84963232 609.39074301 346.85010595 608.19632453 C346.85106517 605.8408935 346.85203781 603.48546248 346.85302372 601.13003147 C346.86156837 579.06842578 346.85175802 557.00685756 346.83562262 534.94525802 C346.8222203 516.0354267 346.82454865 497.12565064 346.83837891 478.21582031 C346.85445108 456.2305234 346.86074448 434.24525928 346.85154212 412.25995731 C346.85058652 409.91342736 346.8496434 407.5668974 346.84871292 405.22036743 C346.84801868 403.48878121 346.84801868 403.48878121 346.84731042 401.72221345 C346.84472544 393.60633535 346.84908089 385.49047814 346.85615158 377.37460327 C346.86458498 367.47749374 346.86224781 357.58045555 346.84630935 347.68335414 C346.83845139 342.63843789 346.83529265 337.59364037 346.84525681 332.54872513 C346.85425569 327.92239869 346.84918609 323.29630004 346.83332415 318.669994 C346.8299982 317.00464368 346.83162057 315.33927375 346.83895151 313.67393625 C346.89258426 300.46796565 345.94853514 287.37329119 340.25976562 275.21484375 C339.95643311 274.5506543 339.65310059 273.88646484 339.34057617 273.20214844 C331.70568988 257.07820467 319.26759185 245.31294931 303.85205078 236.80371094 C299.98681071 234.65173362 296.16676097 232.42211628 292.33886719 230.20458984 C288.96049208 228.24881887 285.57733949 226.30152297 282.19335938 224.35546875 C275.97083905 220.77234818 269.76921166 217.15445759 263.57226562 213.52734375 C254.8947804 208.45186069 246.18120761 203.44225475 237.44726562 198.46484375 C227.72610946 192.92482645 218.03831905 187.33109566 208.38037109 181.68139648 C197.85641938 175.52717633 187.29346425 169.44114379 176.72949219 163.35595703 C171.3006662 160.22804227 165.87407281 157.09625927 160.44726562 153.96484375 C158.2806098 152.71482496 156.11394313 151.46482497 153.94726562 150.21484375 C10.94726563 67.71484375 10.94726563 67.71484375 7.69482422 65.83837891 C5.53636065 64.59314891 3.3778324 63.34803103 1.21923828 62.10302734 C-5.46044372 58.2501795 -12.13759457 54.39298764 -18.81298828 50.53271484 C-22.09854018 48.63557205 -25.3878573 46.7450985 -28.67773438 44.85546875 C-32.19639916 42.83291144 -35.69841866 40.78866547 -39.17773438 38.69921875 C-66.76467966 22.30801905 -95.90322671 22.89349361 -123.55273438 38.46484375 Z " fill="#F3F1EE" transform="translate(790.552734375,254.53515625)"/>
<path d="M0 0 C6.12767642 2.55386776 11.79748858 6.05417572 17.46923828 9.47753906 C19.8676533 10.92038259 22.28454621 12.3226358 24.71484375 13.7109375 C48.21208191 27.18364307 48.21208191 27.18364307 50.5734929 34.86565559 C51.0394578 37.19745634 51.1266514 39.32232541 51.12880117 41.70029187 C51.13207336 42.64898634 51.13534555 43.59768082 51.13871691 44.57512361 C51.13723328 45.61638373 51.13574966 46.65764385 51.13422108 47.73045731 C51.13657331 48.84193742 51.13892554 49.95341754 51.14134905 51.09857887 C51.14805224 54.85554418 51.14758043 58.61247501 51.14717102 62.3694458 C51.14992017 65.07719186 51.15415633 67.78493514 51.1583125 70.49267936 C51.16764506 77.17488446 51.17156165 83.85708294 51.17383147 90.53929374 C51.17679179 98.5407045 51.18548813 106.54210645 51.19424575 114.54351259 C51.21509699 133.88346795 51.22556059 153.22342484 51.23437535 172.56338881 C51.23858046 181.70966668 51.24380259 190.85594388 51.24905988 200.00222119 C51.26694969 231.30165145 51.28194685 262.6010819 51.28938007 293.90051651 C51.28985483 295.86573632 51.29033072 297.83095613 51.29080774 299.79617594 C51.29104411 300.77076063 51.29128049 301.74534532 51.29152403 302.74946288 C51.29272524 307.68730468 51.29394069 312.62514648 51.29516602 317.56298828 C51.29540617 318.54292231 51.29564632 319.52285634 51.29589374 320.53248535 C51.30378944 352.31554157 51.32722705 384.09856051 51.35972196 415.88160044 C51.39400298 449.47284225 51.41372956 483.06406224 51.41702431 516.65532184 C51.41744187 520.34126712 51.41792143 524.02721239 51.41844749 527.71315765 C51.41857069 528.62076213 51.41869388 529.52836661 51.4188208 530.46347426 C51.42115485 545.08239018 51.4368261 559.70126286 51.45728934 574.32016336 C51.47752327 589.00798734 51.48303616 603.69575926 51.47351871 618.3835946 C51.46829444 627.11361381 51.4742248 635.84345997 51.49605338 644.57345435 C51.50952964 650.40270463 51.50851268 656.23183539 51.49565142 662.06108678 C51.48873341 665.3840303 51.49035676 668.7063717 51.50521151 672.02932969 C51.52022524 675.60857934 51.51072964 679.18695097 51.49498463 682.76617813 C51.51031794 684.31402131 51.51031794 684.31402131 51.52596101 685.89313406 C51.46621059 692.08899904 50.58956784 696.84674903 47 702 C42.81888262 705.98201655 39.36289706 706.50968446 33.82714844 706.41503906 C28.44577821 705.62502789 24.07633713 702.83530649 19.4375 700.125 C17.85171143 699.23143799 17.85171143 699.23143799 16.23388672 698.31982422 C13.14208907 696.56938675 10.06866346 694.79061628 7 693 C6.2270459 692.55269531 5.4540918 692.10539062 4.65771484 691.64453125 C1.28028648 689.68788656 -2.0815334 687.70679051 -5.43359375 685.70703125 C-11.06859152 682.35192895 -16.75449582 679.08539491 -22.4375 675.8125 C-23.54464355 675.1745752 -24.65178711 674.53665039 -25.79248047 673.87939453 C-28.06319286 672.57124186 -30.33402727 671.26330098 -32.60498047 669.95556641 C-38.0716998 666.80667946 -43.53574887 663.65316736 -49 660.5 C-51.16665311 659.2499765 -53.33331979 657.99997653 -55.5 656.75 C-77.16666667 644.25 -98.83333333 631.75 -120.5 619.25 C-121.57266113 618.63116943 -122.64532227 618.01233887 -123.75048828 617.37475586 C-125.91557071 616.12564482 -128.08060982 614.87645871 -130.24560547 613.62719727 C-135.68615706 610.48797691 -141.12747216 607.35009437 -146.5703125 604.21484375 C-158.0544882 597.59777108 -169.52196894 590.95366023 -180.96582031 584.26708984 C-188.2562313 580.01016845 -195.56202935 575.78053167 -202.875 571.5625 C-203.94000732 570.94640869 -205.00501465 570.33031738 -206.10229492 569.69555664 C-211.19377529 566.75358262 -216.29269103 563.82741349 -221.42242432 560.95271301 C-223.2272804 559.94024124 -225.02931174 558.92291575 -226.83056641 557.90405273 C-229.09426878 556.62554182 -231.36323306 555.35628772 -233.63818359 554.09790039 C-241.01615432 549.91387399 -246.26403362 546.35845232 -249 538 C-249.251849 534.86072266 -249.251849 534.86072266 -249.25447559 531.25107002 C-249.25768207 530.58217874 -249.26088855 529.91328747 -249.26419219 529.22412676 C-249.27250557 526.9786866 -249.26656331 524.73351224 -249.26069641 522.48806763 C-249.26371649 520.86356807 -249.26760525 519.23906993 -249.27228898 517.61457431 C-249.28259629 513.14714084 -249.28038021 508.67978738 -249.27610838 504.21234727 C-249.27364611 499.39561481 -249.28264913 494.57890187 -249.29014587 489.76217651 C-249.30290889 480.32428419 -249.30468456 470.88642029 -249.30234561 461.44852079 C-249.30056404 453.77850155 -249.30230862 446.10849096 -249.30657005 438.43847275 C-249.30716524 437.34767893 -249.30776043 436.25688511 -249.30837366 435.13303693 C-249.30958538 432.91722672 -249.31079952 430.70141651 -249.31201603 428.4856063 C-249.32289779 407.69569339 -249.3207261 386.90579669 -249.31463119 366.11588286 C-249.30946172 347.08992189 -249.32071713 328.06401212 -249.33972941 309.03806128 C-249.35909396 289.51012004 -249.36736622 269.98220303 -249.36360615 250.45425212 C-249.36169198 239.48764351 -249.36420272 228.52107848 -249.37832069 217.55447769 C-249.39021787 208.21831061 -249.3916581 198.88221393 -249.37953053 189.54604591 C-249.37363009 184.78167129 -249.37257453 180.01742553 -249.38453293 175.25305939 C-249.39535197 170.89197983 -249.39233596 166.53113736 -249.37827124 162.17006908 C-249.37561331 160.59204265 -249.37802512 159.01399788 -249.38600711 157.43598939 C-249.39610628 155.29057761 -249.38769799 153.14599105 -249.37473011 151.00061226 C-249.37478513 149.80910218 -249.37484014 148.61759211 -249.37489682 147.38997567 C-248.61689873 140.53583623 -245.76856529 136.09276451 -240.49316406 131.77685547 C-235.5499569 128.25387645 -230.21831506 125.42319854 -224.875 122.5625 C-222.45412971 121.25294139 -220.03572665 119.93885739 -217.6171875 118.625 C-215.89387207 117.69107422 -215.89387207 117.69107422 -214.13574219 116.73828125 C-210.91297956 114.9517607 -207.78881354 113.05338863 -204.66845703 111.09643555 C-198.47769214 107.26004554 -193.26569631 105.37732782 -186 107 C-182.24785814 108.74206586 -180.5567936 110.21280905 -178.1875 113.5625 C-175.28008928 121.97868894 -175.83761303 131.49945676 -175.77258301 140.31684875 C-175.76018349 141.51009063 -175.74778398 142.70333251 -175.73500872 143.93273324 C-175.70177404 147.21599315 -175.67250506 150.49925975 -175.64496446 153.78257143 C-175.614142 157.33865586 -175.57810375 160.89468804 -175.54270935 164.45072937 C-175.48201604 170.6180053 -175.424547 176.78530444 -175.36924744 182.952631 C-175.28857429 191.94558784 -175.20255781 200.93848776 -175.11525899 209.93138244 C-174.97273056 224.62520384 -174.83394579 239.31905803 -174.69775391 254.01293945 C-174.56710871 268.10702637 -174.43560631 282.2011045 -174.30224609 296.29516602 C-174.29411323 297.1547705 -174.28598037 298.01437498 -174.27760106 298.90002809 C-174.18785289 308.38143977 -174.09764419 317.86284697 -174.00685883 327.34424877 C-173.99470894 328.61323974 -173.99470894 328.61323974 -173.9823136 329.90786689 C-173.94981401 333.30148093 -173.91730691 336.6950949 -173.88474101 340.0887083 C-173.79864646 349.06110767 -173.71328666 358.03351231 -173.63075256 367.00594521 C-173.47879396 383.50870404 -173.31908849 400.01131878 -173.13958693 416.51380342 C-173.04689803 425.10567604 -172.96774458 433.69754892 -172.89992055 442.2896539 C-172.8476027 448.8301798 -172.78460261 455.37055283 -172.71421328 461.91090881 C-172.67283614 465.79381706 -172.63636446 469.67661871 -172.61256313 473.55967772 C-172.59040801 477.15803938 -172.55458912 480.75601048 -172.50847852 484.35414244 C-172.48720823 486.28888352 -172.48033983 488.22376642 -172.47400379 490.15861404 C-172.37841129 501.49915426 -172.37841129 501.49915426 -166.984375 511.05078125 C-165.87835937 511.67533203 -165.87835937 511.67533203 -164.75 512.3125 C-163.95464844 512.7765625 -163.15929687 513.240625 -162.33984375 513.71875 C-161.56769531 514.1415625 -160.79554688 514.564375 -160 515 C-159.36191406 515.4021875 -158.72382812 515.804375 -158.06640625 516.21875 C-154.40839977 518.49991217 -151.32910411 519.90981033 -147 520 C-142.78891041 518.76571512 -140.53895226 517.60986703 -137.625 514.3125 C-134.71101716 508.37245807 -134.87514921 501.9169534 -134.88533211 495.39778805 C-134.88507705 494.67309565 -134.884822 493.94840326 -134.88455921 493.20175049 C-134.88491863 490.78461193 -134.89243941 488.36755036 -134.89993286 485.95042419 C-134.90164595 484.19546882 -134.90290769 482.44051295 -134.90375793 480.68555695 C-134.90733953 475.87146351 -134.91713788 471.0573997 -134.92791152 466.24331772 C-134.93840747 461.04832452 -134.94302838 455.85332592 -134.94824219 450.6583252 C-134.9579478 441.65882745 -134.97098726 432.65933959 -134.98596573 423.65984917 C-135.00934364 409.43820044 -135.02234058 395.21655101 -135.03366089 380.99488831 C-135.03766214 376.12860389 -135.04173083 371.26231954 -135.04582024 366.39603519 C-135.04683946 365.17999063 -135.04785869 363.96394606 -135.04890881 362.71105165 C-135.06064752 348.87450463 -135.07452796 335.03796005 -135.08935547 321.20141602 C-135.0907079 319.93676492 -135.09206033 318.67211383 -135.09345375 317.36913998 C-135.11565097 296.85931258 -135.14552224 276.34950152 -135.17732288 255.8396871 C-135.20969107 234.78388345 -135.23057328 213.72808836 -135.24159515 192.67226273 C-135.24882488 179.6831466 -135.26554679 166.69411139 -135.29439591 153.70502497 C-135.31336766 144.80876015 -135.32148181 135.91252768 -135.32099093 127.01624279 C-135.32105406 121.88121722 -135.32606793 116.74631878 -135.34415817 111.6113224 C-135.36061781 106.91175682 -135.36327814 102.21239413 -135.35490941 97.51280905 C-135.35433477 95.81171721 -135.35886044 94.11061451 -135.36897077 92.40955263 C-135.38197209 90.09824218 -135.37645501 87.78767924 -135.36635017 85.47637081 C-135.36803141 84.19231631 -135.36971264 82.90826181 -135.37144482 81.58529657 C-134.8363915 76.42080179 -133.28209649 71.44279227 -129.1328125 68.0234375 C-123.8446442 63.83893516 -117.79670721 60.80409034 -111.875 57.625 C-103.63972927 53.16499945 -95.5613368 48.58530145 -87.64892578 43.57958984 C-83.30210249 40.98752102 -80.01271383 40.66015499 -75 41 C-69.57225388 43.02210149 -67.0646098 45.92527566 -63.90645832 50.62855917 C-62.54344079 54.19443237 -62.72578832 57.74094045 -62.74666691 61.50555325 C-62.74356964 62.37649471 -62.74047236 63.24743618 -62.73728123 64.14476982 C-62.72927595 67.08351301 -62.73557852 70.0220549 -62.74171448 72.96080017 C-62.73886164 75.08083765 -62.73512463 77.20087409 -62.73057598 79.32090861 C-62.72056321 85.16264548 -62.72297685 91.00432253 -62.72730291 96.84606397 C-62.72977289 103.13995222 -62.72071893 109.4338245 -62.71292114 115.72770691 C-62.70086091 126.6387414 -62.69574314 137.5497579 -62.69503975 148.46079826 C-62.69386215 164.24190004 -62.67867125 180.02296688 -62.65954458 195.804056 C-62.65064464 203.15317885 -62.64237545 210.50230241 -62.63422298 217.85142612 C-62.63340523 218.58716605 -62.63258748 219.32290597 -62.63174495 220.08094105 C-62.61240132 237.59782137 -62.59886412 255.11470522 -62.58666992 272.6315918 C-62.58613313 273.3981556 -62.58559634 274.1647194 -62.58504328 274.95451241 C-62.57254582 292.84265991 -62.56176566 310.73080782 -62.55297852 328.61895752 C-62.54990849 334.82531739 -62.54681617 341.03167726 -62.54370117 347.23803711 C-62.54331936 348.00404043 -62.54293754 348.77004374 -62.54254416 349.55925928 C-62.53378361 367.04343855 -62.52263234 384.52761039 -62.50257015 402.01178074 C-62.50172749 402.74637007 -62.50088482 403.48095941 -62.50001662 404.23780903 C-62.49153423 411.57092302 -62.48253941 418.90403622 -62.47282485 426.23714869 C-62.46806314 429.84470441 -62.46344769 433.45226031 -62.45893669 437.05981636 C-62.45760487 438.12484071 -62.45760487 438.12484071 -62.45624614 439.2113807 C-62.44230102 450.65084573 -62.43967587 462.09028706 -62.44161635 473.52975931 C-62.44340914 485.0204705 -62.43456353 496.51112064 -62.41530795 508.00181859 C-62.40523569 514.23019069 -62.400164 520.45846647 -62.40807533 526.68684387 C-62.41522514 532.3832351 -62.40873727 538.07943824 -62.39118993 543.77580542 C-62.38729002 545.84170678 -62.38851348 547.90762514 -62.39524681 549.9735192 C-62.40364811 552.77211092 -62.39377245 555.57005339 -62.37917423 558.36860561 C-62.38602262 559.17896071 -62.39287101 559.98931581 -62.39992693 560.82422712 C-62.35293536 565.40504943 -61.82644865 568.35142927 -59 572 C-51.97348871 578.36363286 -42.50360127 584.62540532 -32.8125 585.18359375 C-29.20269094 584.94795344 -27.7170798 584.42334145 -25 582 C-22.06823505 575.84997632 -21.56967149 569.83051087 -21.62641239 563.11954308 C-21.62246087 562.16070127 -21.61850935 561.20185946 -21.61443809 560.21396184 C-21.60484487 557.00620957 -21.61656844 553.79889631 -21.62818909 550.59115601 C-21.6256139 548.26611297 -21.62171239 545.94107108 -21.6165995 543.61603224 C-21.60632366 537.2307464 -21.61463033 530.84559871 -21.62589633 524.46031952 C-21.63531494 518.28023285 -21.62766081 512.10015524 -21.62167671 505.92006816 C-21.60984376 493.27906122 -21.61134175 480.63808982 -21.61987495 467.99708176 C-21.63130596 450.73556795 -21.62213845 433.47410753 -21.60731315 416.21259852 C-21.60042068 408.16898826 -21.59447853 400.12537728 -21.58873653 392.08176613 C-21.58787142 390.87399701 -21.58787142 390.87399701 -21.58698884 389.64182851 C-21.57346587 370.48322568 -21.56887829 351.32462265 -21.56616211 332.16601562 C-21.56597739 330.90881291 -21.56597739 330.90881291 -21.56578893 329.62621215 C-21.56307327 310.91529173 -21.5621601 292.20437168 -21.56321259 273.49345109 C-21.56363741 265.85338146 -21.56394491 258.21331183 -21.56420898 250.57324219 C-21.56424176 249.73525389 -21.56427454 248.89726559 -21.56430831 248.0338837 C-21.56499393 228.90413345 -21.56238956 209.77439312 -21.5480566 190.6446476 C-21.54745493 189.84081245 -21.54685326 189.0369773 -21.54623336 188.20878351 C-21.54013603 180.18423904 -21.53336906 172.1596954 -21.52564783 164.13515233 C-21.50916696 146.89180232 -21.50315959 129.64854181 -21.51848718 112.40518889 C-21.52945952 99.83853389 -21.52658851 87.27194696 -21.50929613 74.70529841 C-21.50035627 67.89537085 -21.497985 61.08559016 -21.51382256 54.27567101 C-21.52771055 48.0458036 -21.52335659 41.81622944 -21.50430154 35.58637817 C-21.5006785 33.32879905 -21.50387256 31.07119693 -21.51445121 28.81363969 C-21.52783631 25.75165903 -21.51674129 22.6907131 -21.49942875 19.62877464 C-21.50919 18.74648988 -21.51895125 17.86420512 -21.5290083 16.95518446 C-21.46075807 11.15493188 -20.35265032 7.7674347 -17 3 C-11.63936336 -1.14739464 -6.49761686 -1.37787301 0 0 Z " fill="#F3F1EE" transform="translate(715,363)"/>
<path d="M0 0 C2.34975778 1.16275078 4.56899015 2.44263004 6.80517578 3.81103516 C7.65192871 4.30249023 8.49868164 4.79394531 9.37109375 5.30029297 C11.1899976 6.35958556 13.00270224 7.42958305 14.80957031 8.50927734 C17.63771318 10.19799976 20.48184467 11.85598239 23.33251953 13.50634766 C27.34568478 15.8323987 31.35164762 18.17013479 35.35205078 20.51806641 C41.71538565 24.24929458 48.10114001 27.94087078 54.49267578 31.62353516 C55.57387695 32.24655518 56.65507813 32.8695752 57.76904297 33.51147461 C59.96070737 34.77420547 62.15243921 36.03681931 64.34423828 37.29931641 C67.58242738 39.16571895 70.81907016 41.03477278 74.05517578 42.90478516 C85.81526483 49.69920563 97.59130958 56.46475874 109.38763428 63.1960144 C118.88322811 68.61492897 128.35846012 74.06842391 137.82421875 79.53930664 C145.19036512 83.79372764 152.57231934 88.01980237 159.9619751 92.23318481 C170.22374195 98.08441437 180.45802124 103.97978143 190.64990234 109.95214844 C195.93094195 113.04467297 201.22485983 116.11265053 206.53955078 119.14697266 C207.71129602 119.81740651 208.88300845 120.48789773 210.0546875 121.15844727 C212.27278942 122.42627161 214.49301813 123.69038572 216.71582031 124.94995117 C236.46179536 136.24968004 236.46179536 136.24968004 239.1680553 144.95683271 C239.75989622 147.89115908 239.74589457 150.67139331 239.74910355 153.66577435 C239.75115618 154.31771722 239.75320881 154.9696601 239.75532365 155.64135882 C239.76099699 157.83511809 239.75953599 160.02881464 239.75811768 162.22257996 C239.76070112 163.80766682 239.76371423 165.39275303 239.76712108 166.97783834 C239.77519679 171.3410346 239.77698097 175.70421441 239.77771854 180.06741726 C239.77956811 184.77036234 239.78711498 189.47329887 239.79385376 194.17623901 C239.80744183 204.46346728 239.81346258 214.75069164 239.81786442 225.03792739 C239.82062613 231.46034245 239.82486336 237.88275601 239.82936859 244.30517006 C239.84156205 262.08396275 239.8518611 279.86275423 239.85524368 297.64155102 C239.85546325 298.77967681 239.85568282 299.9178026 239.85590903 301.09041705 C239.85612731 302.23128049 239.85634559 303.37214393 239.85657048 304.54757899 C239.85701395 306.85943743 239.85746051 309.17129586 239.85791016 311.4831543 C239.85813159 312.62991818 239.85835302 313.77668207 239.85858116 314.95819638 C239.86252917 333.53991041 239.87998296 352.12158523 239.90326968 370.70328411 C239.92698013 389.77693507 239.9394454 408.85056636 239.9406116 427.9242323 C239.94152855 438.63494172 239.9472859 449.34560005 239.96543121 460.05629539 C239.98082808 469.1768641 239.98595511 478.29736594 239.97769311 487.41794517 C239.97378511 492.07117562 239.97472357 496.72427138 239.98875046 501.37748528 C240.00148025 505.63939939 240.00029996 509.90107746 239.98815975 514.1629912 C239.98620115 515.70272773 239.98928871 517.24248093 239.99800411 518.78219404 C240.10219398 538.43740049 240.10219398 538.43740049 233.36279297 545.7421875 C229.25220912 549.14313782 224.43047026 551.49881671 219.74267578 553.99853516 C217.49166165 555.22584362 215.24165838 556.45500796 212.99267578 557.68603516 C211.90212891 558.28029297 210.81158203 558.87455078 209.68798828 559.48681641 C205.02792531 562.06585889 200.47585652 564.80877718 195.94628906 567.60913086 C190.83296317 570.7482085 186.61882027 571.81234056 180.61767578 571.18603516 C175.91773549 569.46874928 173.40808079 567.3199685 170.61767578 563.18603516 C169.52700522 559.91402347 169.48754063 557.51526787 169.47964478 554.07063293 C169.47419144 552.79070465 169.4687381 551.51077637 169.46311951 550.19206238 C169.46199971 548.77053838 169.46094919 547.34901433 169.45996094 545.92749023 C169.45529238 544.43265636 169.45014875 542.9378239 169.44456482 541.44299316 C169.43328315 538.22146043 169.4248492 534.99993695 169.41844559 531.77839088 C169.40776266 526.68056929 169.387516 521.582814 169.36532593 516.48503113 C169.30341485 501.98785446 169.24942427 487.49068134 169.21630859 472.9934082 C169.19794286 464.98846615 169.16898104 456.98363485 169.12830389 448.97877425 C169.10726395 444.74420671 169.09178092 440.50977858 169.08949661 436.27515602 C169.08734357 432.28845694 169.07140764 428.30204795 169.04510689 424.31543732 C169.03793694 422.85622191 169.03580171 421.39697127 169.03920937 419.93774223 C169.09546059 407.49013754 169.09546059 407.49013754 163.63720703 396.58837891 C159.18027731 393.0424387 154.3059559 390.4517213 149.30517578 387.74853516 C147.03332072 386.49908907 144.76251184 385.24773911 142.49267578 383.99462891 C141.34154297 383.36024902 140.19041016 382.72586914 139.00439453 382.07226562 C133.89410308 379.22609263 128.84770841 376.27513492 123.80517578 373.31103516 C113.82265931 367.45475806 103.79876522 361.675203 93.72827148 355.97167969 C88.4283828 352.96583165 83.15675514 349.93258878 77.97314453 346.72900391 C76.69661011 345.95109497 76.69661011 345.95109497 75.39428711 345.1574707 C73.86052723 344.21775628 72.33692535 343.26111716 70.82739258 342.28295898 C65.52889921 339.0616909 60.78664152 338.25731438 54.61767578 339.18603516 C50.96883736 341.31452423 49.19486011 343.32335178 47.61767578 347.18603516 C47.31918805 349.64926845 47.31918805 349.64926845 47.36434269 352.34388447 C47.35872729 353.39255044 47.3531119 354.44121642 47.34732634 355.52166015 C47.35130743 356.67251843 47.35528853 357.82337672 47.35939026 359.0091095 C47.35571455 360.23265394 47.35203885 361.45619839 47.34825176 362.71681994 C47.33998726 366.11481263 47.34064682 369.51259504 47.34497869 372.91058123 C47.34745281 376.57463148 47.33838927 380.23865447 47.33059692 383.9026947 C47.31854595 390.25305967 47.31344367 396.60339954 47.31271553 402.95377541 C47.31139047 412.14300667 47.29628376 421.33217695 47.27722036 430.52138671 C47.24636865 445.43995013 47.22220822 460.35851511 47.2043457 475.27709961 C47.20327302 476.17018586 47.20220034 477.06327211 47.20109516 477.98342159 C47.1892771 487.94559106 47.17907175 497.90776116 47.1706543 507.86993408 C47.16758045 511.48124188 47.16449165 515.09254966 47.16137695 518.70385742 C47.16061161 519.59494738 47.15984628 520.48603734 47.15905774 521.40413002 C47.1459757 536.26284908 47.12133495 551.12152406 47.08763355 565.98021048 C47.06734275 575.14571958 47.05705427 584.31113439 47.05962276 593.47666612 C47.06065794 599.75798281 47.05101917 606.03922498 47.03298373 612.32051567 C47.02294028 615.9446645 47.01780887 619.56864846 47.02575111 623.19280624 C47.03426079 627.12264046 47.01969701 631.05219784 47.00294495 634.98200989 C47.00915676 636.12617601 47.01536858 637.27034213 47.02176863 638.44917995 C46.9645171 645.80471569 46.50723067 651.20371767 41.18408203 656.69775391 C36.34290405 660.35212016 30.86751243 663.10443069 25.55517578 665.99853516 C17.53052292 670.42223368 9.59721604 674.89665589 1.87548828 679.83056641 C-2.26632462 682.3170873 -5.61928082 682.50895335 -10.38232422 682.18603516 C-15.64142132 680.2927602 -18.17241016 677.58820301 -21.38232422 673.18603516 C-22.33628153 670.32416321 -22.50811351 668.55689433 -22.50997472 665.58840436 C-22.51299069 664.63714448 -22.51600666 663.68588459 -22.51911402 662.70579866 C-22.51734455 661.65652679 -22.51557508 660.60725493 -22.51375198 659.52618694 C-22.51580462 658.41019636 -22.51785725 657.29420577 -22.51997209 656.14439729 C-22.52567311 652.36608536 -22.52418103 648.58780952 -22.52276611 644.80949402 C-22.52479706 642.08881148 -22.52832158 639.36813133 -22.53176951 636.64745027 C-22.53936107 629.92942982 -22.54154316 623.21141732 -22.54209857 616.49339303 C-22.54301106 608.45001962 -22.54967517 600.40665359 -22.55644539 592.36328335 C-22.57251903 572.9213862 -22.57841005 553.47948982 -22.58319414 534.03758721 C-22.58552854 524.84436925 -22.589131 515.65115191 -22.59288952 506.45793443 C-22.60572571 475.00214749 -22.61644526 443.5463609 -22.61989212 412.0905714 C-22.62011375 410.1153101 -22.62033554 408.14004879 -22.62055747 406.16478749 C-22.62077811 404.18469798 -22.6209986 402.20460847 -22.62121892 400.22451895 C-22.62166148 396.25197422 -22.62210859 392.27942949 -22.62255859 388.30688477 C-22.62266798 387.3219218 -22.62277738 386.33695884 -22.62289008 385.32214851 C-22.62652204 353.37293166 -22.64244696 321.42373747 -22.66574896 289.4745293 C-22.69032776 255.71312013 -22.70406403 221.95172392 -22.70526004 188.19030553 C-22.7054315 184.4864062 -22.70564693 180.78250688 -22.70589447 177.07860756 C-22.70595024 176.16657228 -22.70600601 175.254537 -22.70606347 174.31486429 C-22.70721556 159.61833148 -22.71825095 144.92182187 -22.73278153 130.2252969 C-22.74712576 115.46233688 -22.75039526 100.6994067 -22.74234155 85.93644162 C-22.7378756 77.15937923 -22.74178433 68.38241299 -22.75758005 59.60536317 C-22.76729931 53.74726941 -22.76618118 47.88924334 -22.75614383 42.03115027 C-22.75072956 38.69015185 -22.75175457 35.34949019 -22.76265255 32.00848236 C-22.77364185 28.41328721 -22.7663304 24.81858746 -22.75426102 21.22340679 C-22.76185621 20.18115842 -22.7694514 19.13891006 -22.77727675 18.06507841 C-22.7258734 11.02259877 -21.61150887 6.7495975 -16.88232422 1.31103516 C-12.16362156 -2.30922971 -5.41868009 -1.85139162 0 0 Z M49.61767578 125.18603516 C45.95657324 130.60766075 46.18569904 135.74914302 46.21362305 142.05322266 C46.2067598 143.13686096 46.19989655 144.22049927 46.19282532 145.3369751 C46.17455386 148.91179581 46.17839512 152.48617786 46.18408203 156.06103516 C46.17952079 158.5491551 46.17421539 161.03727378 46.16819763 163.52539062 C46.15812299 169.40423096 46.16422779 175.28291537 46.17545122 181.16174889 C46.18263591 185.84508266 46.17183748 190.52813718 46.15112305 195.21142578 C46.12287059 201.67636838 46.11416454 208.14101927 46.12135124 214.60601807 C46.12150463 217.06838726 46.11544631 219.53076498 46.10305977 221.99310303 C46.08818206 225.43535534 46.09880399 228.87662606 46.1159668 232.31884766 C46.10629883 233.33513245 46.09663086 234.35141724 46.08666992 235.39849854 C46.16240096 242.65239194 47.81271444 246.42573881 53.07080078 251.60009766 C58.08549095 255.53484518 63.82118467 258.45582261 69.36767578 261.56103516 C70.62051988 262.26857454 71.87295465 262.97683914 73.125 263.68579102 C75.05407063 264.77800238 76.98336629 265.86979031 78.91390991 266.95939636 C85.21356449 270.51533892 91.4806138 274.12684168 97.74267578 277.74853516 C99.87547131 278.98033538 102.00828385 280.21210615 104.14111328 281.44384766 C105.19911133 282.05518555 106.25710938 282.66652344 107.34716797 283.29638672 C110.16162402 284.92253556 112.97631502 286.54827605 115.79133606 288.17344666 C117.51991015 289.17139399 119.24835883 290.16955856 120.97680664 291.16772461 C123.2082093 292.45476952 125.44076458 293.73981849 127.67456055 295.02270508 C132.15660159 297.59800814 136.631688 300.17533183 141.04345703 302.86962891 C149.69992304 308.26597091 149.69992304 308.26597091 159.61767578 309.18603516 C163.8254161 307.70553393 166.38079687 306.07114063 168.61767578 302.18603516 C169.51359559 299.26654394 169.74851484 296.62910092 169.7648468 293.58282471 C169.77200211 292.66333038 169.77915741 291.74383606 169.78652954 290.79647827 C169.78921844 289.7948465 169.79190735 288.79321472 169.79467773 287.76123047 C169.80124893 286.70060394 169.80782013 285.63997742 169.81459045 284.54721069 C169.83430583 281.03619312 169.84598187 277.52521827 169.85595703 274.01416016 C169.86003256 272.8142318 169.86410809 271.61430344 169.86830711 270.37801361 C169.8891598 264.02756421 169.90346532 257.67713638 169.9128418 251.32666016 C169.9239077 244.77178523 169.9583125 238.21724962 169.9980135 231.66249466 C170.02417141 226.61809665 170.03253291 221.57377963 170.03612328 216.52931976 C170.04099089 214.11324521 170.05260978 211.69717431 170.07116127 209.28116608 C170.09553533 205.89664376 170.09459041 202.51300138 170.08764648 199.12841797 C170.10045654 198.13488312 170.1132666 197.14134827 170.12646484 196.1177063 C170.08075634 189.99077839 169.16405129 185.28300442 165.61767578 180.18603516 C163.30623669 178.04660609 163.30623669 178.04660609 160.43017578 176.56103516 C159.88466064 176.24730957 159.33914551 175.93358398 158.77709961 175.61035156 C156.73618589 174.44589555 154.67720477 173.31723914 152.61767578 172.18603516 C150.76003543 171.14591993 148.90333607 170.10412306 147.04736328 169.06103516 C143.87896578 167.28279609 140.70905704 165.50751547 137.53466797 163.73999023 C128.2039899 158.54215669 118.97636655 153.18061526 109.76220703 147.77978516 C102.09628893 143.28781305 94.39615109 138.85560673 86.69604492 134.42260742 C85.68533936 133.84051514 84.67463379 133.25842285 83.63330078 132.65869141 C82.64547607 132.09142334 81.65765137 131.52415527 80.63989258 130.93969727 C78.53600819 129.71890386 76.44175098 128.48143066 74.35522461 127.23120117 C73.29843506 126.60012451 72.24164551 125.96904785 71.15283203 125.31884766 C70.20545166 124.74666504 69.25807129 124.17448242 68.28198242 123.58496094 C61.23450861 119.88460128 55.82572786 120.34375453 49.61767578 125.18603516 Z " fill="#F3F1EE" transform="translate(819.38232421875,422.81396484375)"/>
<path d="M0 0 C6.53637918 7.31451956 6.06765628 15.48618802 6.05737305 24.81567383 C6.06642239 26.22857281 6.07675943 27.64146402 6.08826542 29.05434513 C6.11600288 32.93031354 6.12517929 36.80613451 6.13112354 40.68218946 C6.14067186 44.88421869 6.1669765 49.08614951 6.190979 53.28811646 C6.23540139 61.55237934 6.26341188 69.81662403 6.2861892 78.08097172 C6.30528753 84.82103742 6.3319494 91.56103769 6.36355591 98.30105591 C6.58023033 144.61697536 6.64686985 190.93232269 6.61187339 237.24871182 C6.60938601 240.6490123 6.60720532 244.04931283 6.60512733 247.44961357 C6.59224021 268.36760921 6.5773011 289.28556146 6.52379596 310.20349836 C6.50291163 318.45644579 6.4883868 326.70938811 6.47859681 334.96235609 C6.47136045 340.66372805 6.45557181 346.36498642 6.43298119 352.06631714 C6.42130931 355.5378576 6.41796735 359.00936847 6.41703475 362.48092687 C6.41492538 364.07134204 6.40938615 365.66175715 6.4000591 367.25214636 C5.71021887 380.24687299 5.71021887 380.24687299 10.953125 391.4765625 C16.11633496 395.2166199 21.82013346 398.20259845 27.375 401.3125 C28.6278441 402.02003938 29.88027887 402.72830399 31.13232422 403.43725586 C33.06139485 404.52946722 34.99069051 405.62125515 36.92123413 406.71086121 C43.22088849 410.26680364 49.4879506 413.87828517 55.75 417.5 C57.89841562 418.7409233 60.04685313 419.98180869 62.1953125 421.22265625 C63.25524414 421.83512207 64.31517578 422.44758789 65.40722656 423.07861328 C70.81170645 426.20074605 76.21847412 429.31891204 81.625 432.4375 C83.7916775 433.68748122 85.95834417 434.93748121 88.125 436.1875 C89.1975 436.80625 90.27 437.425 91.375 438.0625 C127.125 458.6875 127.125 458.6875 130.37451172 460.56225586 C132.54276264 461.8131448 134.71105697 463.06395852 136.87939453 464.31469727 C142.27217915 467.42548335 147.66422093 470.53754238 153.0546875 473.65234375 C164.86129484 480.47252637 176.68527 487.2607326 188.52972412 494.01486206 C197.56829428 499.17085445 206.56777138 504.39070673 215.54736328 509.64868164 C223.21102252 514.12939393 230.91194638 518.54265756 238.625 522.9375 C247.31901686 527.89128823 255.98997229 532.88128369 264.625 537.9375 C272.63254151 542.62537909 280.66599792 547.26543676 288.72576904 551.86288452 C290.48891358 552.86867572 292.25159956 553.87526599 294.01416016 554.88208008 C298.77408416 557.6005432 303.53402123 560.31892601 308.30078125 563.02539062 C310.71812714 564.39795958 313.13370642 565.77354205 315.54736328 567.15258789 C317.78784453 568.4325234 320.03086847 569.70802209 322.27685547 570.97827148 C337.24983824 579.55457614 337.24983824 579.55457614 339.625 587.9375 C339.87477241 593.90081621 338.71061295 598.45329066 334.625 602.9375 C333.21084864 603.88347744 331.76166471 604.7778651 330.29296875 605.63671875 C329.40150146 606.16015869 328.51003418 606.68359863 327.59155273 607.22290039 C326.61259033 607.78871826 325.63362793 608.35453613 324.625 608.9375 C323.58351807 609.54005615 322.54203613 610.1426123 321.46899414 610.76342773 C316.95307023 613.36664637 312.43072424 615.95854965 307.90625 618.546875 C306.79765625 619.18367188 305.6890625 619.82046875 304.546875 620.4765625 C303.55268555 621.04584473 302.55849609 621.61512695 301.53417969 622.20166016 C299.46577394 623.43582975 297.43541131 624.73474654 295.43457031 626.07568359 C290.09379255 629.61485384 284.97202982 630.58651072 278.625 629.9375 C276.08017105 629.00632395 273.97516472 628.08850968 271.625 626.8125 C270.95259277 626.46195557 270.28018555 626.11141113 269.58740234 625.75024414 C260.16592482 620.75578923 251.0203842 615.24613942 241.83984375 609.82714844 C236.49526849 606.68566814 231.1226523 603.59313694 225.75 600.5 C223.56510299 599.24088746 221.38020716 597.98177287 219.1953125 596.72265625 C218.11024414 596.09762207 217.02517578 595.47258789 215.90722656 594.82861328 C210.47840058 591.70069852 205.05180719 588.56891552 199.625 585.4375 C197.45834417 584.18748121 195.2916775 582.93748122 193.125 581.6875 C50.125 499.1875 50.125 499.1875 46.87548828 497.31274414 C44.70723736 496.0618552 42.53894303 494.81104148 40.37060547 493.56030273 C34.97782085 490.44951665 29.58577907 487.33745762 24.1953125 484.22265625 C13.56986159 478.08477823 2.93422959 471.96584562 -7.72515869 465.887146 C-20.0599886 458.8529122 -32.35085684 451.7462196 -44.59790039 444.56005859 C-46.60104231 443.38969541 -48.60860171 442.22688154 -50.61889648 441.06884766 C-51.69212158 440.44929199 -52.76534668 439.82973633 -53.87109375 439.19140625 C-54.85005615 438.62881104 -55.82901855 438.06621582 -56.83764648 437.48657227 C-62.45710487 434.05585318 -65.33526926 430.12640767 -67.375 423.9375 C-67.75104749 420.58303648 -67.75104749 420.58303648 -67.75252342 417.02335453 C-67.75906391 416.02966828 -67.75906391 416.02966828 -67.76573652 415.01590756 C-67.77665284 412.80426285 -67.76628825 410.59324682 -67.75595093 408.38160706 C-67.75940894 406.77671663 -67.76417447 405.17182858 -67.77013266 403.56694549 C-67.78265274 399.16292886 -67.77646767 394.75910734 -67.76717401 390.35509002 C-67.76038794 385.60312764 -67.77086259 380.85119887 -67.77911377 376.09924316 C-67.79245831 366.79228548 -67.78957005 357.48540034 -67.78087585 348.1784398 C-67.77410215 340.61430942 -67.77318123 333.05019937 -67.7764473 325.48606682 C-67.776907 324.40970951 -67.77736669 323.3333522 -67.77784032 322.224378 C-67.7787995 320.03780158 -67.77977214 317.85122517 -67.7807581 315.66464876 C-67.78931421 295.15748376 -67.77947459 274.65035898 -67.763357 254.14320057 C-67.74995553 236.54718843 -67.75228008 218.95123567 -67.76611328 201.35522461 C-67.78216846 180.92325152 -67.78848821 160.49131369 -67.77927649 140.05933517 C-67.77832084 137.8804731 -67.77737773 135.70161103 -67.7764473 133.52274895 C-67.77598447 132.45070066 -67.77552164 131.37865238 -67.77504479 130.27411779 C-67.77245458 122.71960245 -67.77682662 115.16510948 -67.78388596 107.61059761 C-67.79230054 98.40332652 -67.79002174 89.19613216 -67.77404372 79.98886985 C-67.76616019 75.29119404 -67.76307084 70.59364616 -67.77299118 65.8959713 C-67.78193692 61.59474277 -67.77700718 57.29376063 -67.76105852 52.99255442 C-67.75771019 51.43745238 -67.75940598 49.88232949 -67.76668589 48.32724089 C-67.84169584 30.9713056 -67.84169584 30.9713056 -62.81542969 25.12280273 C-62.23180664 24.73036377 -61.64818359 24.3379248 -61.046875 23.93359375 C-60.34111328 23.45647949 -59.63535156 22.97936523 -58.90820312 22.48779297 C-53.54569581 19.20599638 -48.10756086 16.0746794 -42.625 13 C-40.81130918 11.97621286 -38.99851833 10.95084808 -37.18591309 9.92514038 C-35.99467137 9.25165992 -34.80270097 8.57946662 -33.60998535 7.90859985 C-28.65336204 5.11589088 -23.76316783 2.21786162 -18.88964844 -0.71704102 C-12.53627417 -4.11640466 -6.11315012 -3.73581396 0 0 Z " fill="#F3F1EE" transform="translate(426.375,534.0625)"/>
</svg>
